<svg width="80" height="17" viewBox="0 0 80 17" fill="none" xmlns="http://www.w3.org/2000/svg">
<g clip-path="url(#clip0_154_1227)">
<path d="M15.109 8.99511C12.5582 6.98854 11.5303 4.16231 9.88774 1.75122C9.77854 1.48692 9.71779 1.20586 9.70826 0.920919C10.0074 0.888984 10.3555 0.739958 10.6002 0.841085C13.1402 1.90558 15.3211 3.36925 16.0826 6.20081C16.3491 7.18547 16.6265 8.18078 16.8821 9.2506L24.6161 9.51672C22.6745 7.91998 21.8967 5.68986 20.7437 3.71522C20.6278 3.40618 20.5635 3.08089 20.5533 2.75185C20.8797 2.78379 21.2658 2.70926 21.516 2.85829C23.4142 4.01859 25.3232 5.14696 27.1561 6.435C27.7442 6.85282 28.1833 7.44078 28.4117 8.11593C28.64 8.79108 28.646 9.51934 28.4288 10.198L32.6983 12.162C32.6711 12.2578 32.6493 12.3589 32.6276 12.4547C32.4478 12.4869 32.2635 12.4869 32.0837 12.4547C31.4473 12.2152 30.8327 11.9225 30.1964 11.6936C30.0944 11.6696 29.9878 11.6706 29.8863 11.6966C29.7847 11.7226 29.6914 11.7728 29.6144 11.8426C28.3689 13.5724 26.5741 14.5039 24.6107 15.1692C23.028 15.7014 21.4507 16.2816 19.8571 16.8032C19.5475 16.8539 19.2313 16.8539 18.9217 16.8032C18.9761 16.4945 18.9217 16.1166 19.0903 15.8824C20.8796 13.3223 23.2184 11.5126 26.3946 10.8739C26.5124 10.8549 26.6286 10.8283 26.7427 10.7941C26.7808 10.7941 26.8026 10.7249 26.8678 10.6504C24.8222 10.2131 22.7258 10.0466 20.6349 10.1554C20.5391 10.1795 20.4501 10.2246 20.3748 10.2873C20.2994 10.35 20.2395 10.4287 20.1998 10.5173C19.7272 11.8975 18.7407 13.0529 17.4369 13.7534C15.2994 14.935 13.0531 15.9303 10.8395 16.9788C10.7314 17.0119 10.6166 17.018 10.5055 16.9967C10.3944 16.9753 10.2904 16.9271 10.2032 16.8564C10.1423 16.7484 10.1055 16.629 10.0952 16.5061C10.0848 16.3831 10.1013 16.2595 10.1434 16.1432C10.6916 14.7544 11.5632 13.5097 12.6887 12.508C13.7758 11.4745 15.073 10.6765 16.4959 10.1661C16.6208 10.1166 16.7425 10.0597 16.8603 9.99574C15.7541 9.85751 14.6558 9.66387 13.5698 9.41559C12.6087 9.16532 11.6919 8.77413 10.8504 8.25529C10.0289 7.71024 9.08081 7.37536 8.09292 7.28127C6.84523 7.14224 5.67632 6.61415 4.7589 5.77502C3.27954 4.44972 1.8328 3.08717 0.407827 1.71929C-0.233957 1.10721 -0.0925471 0.548333 0.766791 0.276887C3.00216 -0.42568 4.90575 0.330119 6.60811 1.698C8.1097 2.97668 9.25342 4.60885 9.93125 6.44033C10.0705 6.75667 10.294 7.03057 10.5785 7.23337C11.9127 8.18508 13.4712 8.79112 15.109 8.99511ZM1.36507 0.873018C4.52504 1.93751 6.46127 4.44439 8.97945 6.28597C7.69588 2.83168 4.27485 0.138516 1.36507 0.873018ZM11.6989 15.5418L11.8131 15.7281C12.6507 15.3608 13.51 15.0308 14.3204 14.6156C15.5385 14.0195 16.7223 13.3585 17.8665 12.6357C18.7613 12.0609 19.4319 11.2077 19.7701 10.214L19.6124 10.0224L11.6989 15.5418ZM27.254 9.92123C26.3022 8.48416 23.3108 5.49826 22.1523 4.95004C22.7973 6.13783 23.5241 7.28126 24.3279 8.37239C24.6418 8.85181 25.0749 9.2454 25.5867 9.5163C26.0985 9.78719 26.6722 9.92652 27.254 9.92123ZM1.55542 1.71929C3.73096 3.61942 5.36262 6.3179 8.62593 6.73306C6.31442 5.04583 4.36187 2.79443 1.55542 1.71929ZM27.7924 11.4754C25.519 11.3051 21.8913 13.1999 20.7219 15.0468L27.7924 11.4754ZM29.3044 11.353L21.8151 15.1373C24.5617 14.456 27.4063 13.9237 29.3044 11.353ZM27.6728 9.75624L27.961 9.65511C27.7707 9.00577 27.7272 8.26061 27.3573 7.73369C26.188 6.05711 24.317 5.24276 22.5874 4.26875C24.2626 6.13694 26.5796 7.39837 27.6673 9.77752L27.6728 9.75624ZM11.7533 14.8392L17.8828 10.5067C16.6159 10.7883 15.4201 11.3172 14.3669 12.0616C13.3137 12.8061 12.4247 13.7508 11.7533 14.8392ZM15.1743 8.20207C14.0485 6.1742 13.0423 4.0665 11.2474 2.4804C12.4168 4.48165 13.3197 6.66387 15.1852 8.20207H15.1743ZM12.6452 2.74653L15.7127 7.71239C15.4027 5.57808 14.4727 3.84296 12.6452 2.74653Z" fill="#173627"/>
<path d="M51.582 10.2619C51.3412 9.4831 51.3706 8.64818 51.6658 7.8875C51.961 7.12682 52.5053 6.4832 53.2137 6.05715C54.9106 4.89685 56.7108 3.88025 58.4948 2.86366C58.7341 2.71995 59.1202 2.82107 59.4411 2.80511C59.4318 3.09769 59.3749 3.38696 59.2725 3.66203C58.3806 5.22684 57.4777 6.781 56.5531 8.31388C56.2642 8.70004 55.9362 9.05668 55.5741 9.37837C57.2058 9.37837 58.919 9.37837 60.6159 9.37837C61.2996 9.38018 61.9826 9.33931 62.6609 9.25596C62.7821 9.22718 62.8946 9.17068 62.9891 9.09111C63.0837 9.01155 63.1576 8.91117 63.2048 8.79822C63.4822 7.90937 63.6726 6.9939 63.9336 6.10505C64.744 3.33204 66.8978 1.88965 69.4377 0.857092C69.6716 0.761287 70.0143 0.931596 70.308 0.979499C70.2814 1.24643 70.2155 1.50819 70.1122 1.75659C69.0244 3.51833 67.9747 5.29072 66.8217 7.00988C66.2831 7.70497 65.6941 8.36133 65.0595 8.97387C66.7754 8.7394 68.3969 8.06349 69.7586 7.01519C69.9195 6.84133 70.0335 6.63096 70.0904 6.40311C71.1455 3.90686 72.6195 1.76723 75.2192 0.548379C75.8525 0.232105 76.5461 0.0484214 77.2559 0.00901671C77.9657 -0.030388 78.6762 0.0753542 79.3419 0.319516C80.0544 0.580318 80.2121 1.0966 79.6954 1.58627C78.0638 3.11382 76.4321 4.63605 74.7678 6.09441C73.729 6.99391 72.3965 7.25471 71.0422 7.4197C70.6169 7.46619 70.2088 7.61026 69.8511 7.84018C68.0767 9.04548 65.993 9.74056 63.8357 9.84675L63.2538 9.90531C63.2538 9.90531 63.2266 9.93192 63.1559 10.0171L63.7922 10.2832C66.4112 11.3031 68.527 13.2726 69.6988 15.7813C69.7913 16.1466 69.8171 16.525 69.775 16.899C69.4074 16.8997 69.0414 16.8514 68.6872 16.7553C67.2785 16.1539 65.8916 15.5152 64.4993 14.8818C62.7992 14.186 61.3357 13.0325 60.2787 11.5553C60.1643 11.4301 60.0773 11.2834 60.0231 11.1241C59.8599 10.1182 59.1692 10.0596 58.3262 10.1235C56.5912 10.2672 54.8508 10.3577 53.1158 10.4748C53.1158 10.56 53.1158 10.6451 53.1158 10.7356C53.4584 10.8261 53.7902 10.9219 54.1328 11.0017C57.0481 11.6937 59.1529 13.466 60.8498 15.792C60.9689 15.9435 61.0591 16.1148 61.1163 16.2976C61.2468 16.766 60.9531 17.0906 60.4854 16.915C57.9563 15.9942 55.3892 15.1479 52.9417 14.0409C51.854 13.5459 51.0001 12.5027 49.9232 11.6085C49.1889 11.7522 48.3948 12.4654 47.3506 12.4069C48.5906 11.3583 50.0809 10.8367 51.582 10.2619ZM78.6185 0.867731C75.6054 0.127906 72.1354 3.03398 71.0422 6.27004C73.5223 4.43379 75.4694 1.94819 78.6185 0.867731ZM68.1487 15.7334L68.2684 15.5312L60.3549 10.0224L60.1808 10.2672C61.7907 13.5725 65.2118 14.2963 68.1487 15.7334ZM57.7388 4.87556C55.982 6.4723 53.9316 7.78696 52.6807 10.0171C55.7536 9.47418 56.6293 7.06842 57.7388 4.87556ZM71.374 6.72246C74.6373 6.26473 76.2689 3.60881 78.4445 1.69804C75.6435 2.79447 73.6964 5.02458 71.374 6.7331V6.72246ZM59.3215 15.0947C57.5593 12.6783 53.937 11.2838 52.251 11.5127L59.3215 15.0947ZM58.1086 15.2917C58.1086 15.2384 58.1467 15.1852 58.1685 15.1267L50.6737 11.353C52.5882 13.9238 55.4327 14.456 58.1086 15.2917ZM52.251 9.96917C53.3932 7.41438 55.7319 6.16891 57.3581 4.26879C55.9555 5.0912 54.6026 5.9922 53.3061 6.96729C52.8535 7.31022 52.5128 7.77467 52.3254 8.30395C52.138 8.83323 52.1122 9.40446 52.251 9.94788V9.96917ZM62.0844 10.528L68.2358 14.8658C67.5588 13.7749 66.666 12.8273 65.6096 12.0788C64.5533 11.3302 63.3548 10.7957 62.0844 10.5067V10.528ZM64.8038 8.2234C66.6585 6.67456 67.5777 4.49766 68.7307 2.49108C66.9468 4.06121 65.9297 6.15828 64.8038 8.20211V8.2234ZM67.3438 2.74657C65.5055 3.81106 64.5754 5.58344 64.2654 7.71243L67.3438 2.74657Z" fill="#173627"/>
<path d="M39.9269 9.35686C40.3851 8.83466 40.8774 8.34217 41.4009 7.88252C41.8141 7.53909 42.3312 7.33797 42.8726 7.31009C43.414 7.2822 43.9498 7.42908 44.3977 7.72816C44.843 8.04866 45.1737 8.49847 45.3426 9.01355C45.5115 9.52863 45.5101 10.0827 45.3386 10.597C44.9068 11.8827 44.0688 13.001 42.9455 13.7905C42.0807 14.4877 41.2051 15.185 40.3457 15.8875C40.0357 16.143 39.7366 16.3133 39.3776 16.0046C37.9417 14.7805 36.4461 13.6148 35.0972 12.3055C34.6021 11.8677 34.2472 11.299 34.0754 10.668C33.9036 10.0371 33.9223 9.3709 34.1291 8.75009C34.2091 8.4607 34.3492 8.19055 34.5406 7.95647C34.732 7.7224 34.9706 7.52944 35.2416 7.38961C35.5125 7.24978 35.8101 7.1661 36.1155 7.14376C36.421 7.12143 36.7279 7.16093 37.0171 7.2598C37.6224 7.39734 38.1926 7.65425 38.6929 8.01482C39.1932 8.37539 39.6131 8.83205 39.9269 9.35686ZM39.7311 10.9536C39.6269 10.4555 39.4626 9.97133 39.2416 9.5112C38.6592 8.66967 37.763 8.08498 36.7452 7.88252C36.557 7.82477 36.359 7.80389 36.1626 7.82106C35.9661 7.83823 35.775 7.89311 35.6003 7.98258C35.4255 8.07204 35.2705 8.19434 35.144 8.34247C35.0176 8.4906 34.9222 8.66167 34.8634 8.84589C34.6698 9.35673 34.6411 9.91343 34.7811 10.4407C34.9212 10.9681 35.2233 11.4406 35.6466 11.7945C36.9301 13.056 38.366 14.195 39.7148 15.3925C40.9386 14.3919 42.1242 13.535 43.163 12.5344C43.7578 11.911 44.2364 11.1904 44.5771 10.4054C44.7383 10.0498 44.7673 9.65027 44.659 9.276C44.5507 8.90173 44.312 8.57633 43.9843 8.35623C43.6787 8.12968 43.3014 8.01564 42.9185 8.03413C42.5356 8.05262 42.1716 8.20246 41.8904 8.45736C41.4723 8.81787 41.0949 9.22111 40.7645 9.66023C40.4164 10.0701 40.101 10.5012 39.7311 10.9589V10.9536Z" fill="#173627"/>
</g>
<defs>
<clipPath id="clip0_154_1227">
<rect width="80" height="17" fill="white"/>
</clipPath>
</defs>
</svg>
